<?xml version="1.0" standalone="no"?>
<!DOCTYPE svg PUBLIC "-//W3C//DTD SVG 20010904//EN"
 "http://www.w3.org/TR/2001/REC-SVG-20010904/DTD/svg10.dtd">
<svg version="1.0" xmlns="http://www.w3.org/2000/svg"
 width="512.000000pt" height="512.000000pt" viewBox="0 0 512.000000 512.000000"
 preserveAspectRatio="xMidYMid meet">

<g transform="translate(0.000000,512.000000) scale(0.100000,-0.100000)"
fill="#000000" stroke="none">
<path d="M2560 4200 l0 -450 778 0 c744 0 778 -1 806 -19 46 -31 66 -69 66
-131 0 -62 -20 -100 -66 -131 -28 -18 -62 -19 -806 -19 l-778 0 0 -150 0 -150
178 0 c195 0 212 -5 253 -66 26 -39 26 -129 0 -168 -41 -61 -58 -66 -253 -66
l-178 0 0 -150 0 -150 778 0 c744 0 778 -1 806 -19 46 -31 66 -69 66 -131 0
-62 -20 -100 -66 -131 -28 -18 -62 -19 -806 -19 l-778 0 0 -450 0 -450 1048 0
c576 1 1077 5 1114 9 198 26 360 187 388 386 13 94 13 2416 0 2510 -28 199
-190 360 -388 386 -37 4 -538 8 -1114 9 l-1048 0 0 -450z m1607 -1093 c37 -36
38 -40 38 -107 0 -67 -1 -71 -38 -107 l-37 -38 -370 0 -370 0 -37 38 c-37 36
-38 40 -38 107 0 63 3 71 30 100 17 18 39 36 50 41 11 4 181 7 377 6 l358 -2
37 -38z"/>
</g>
</svg>
